<?xml version="1.0" standalone="no"?>
<!DOCTYPE svg PUBLIC "-//W3C//DTD SVG 1.1//EN" "http://www.w3.org/Graphics/SVG/1.1/DTD/svg11.dtd" >
<svg xmlns="http://www.w3.org/2000/svg" xmlns:xlink="http://www.w3.org/1999/xlink" version="1.1">
<metadata>
Created by FontForge 20170731 at Wed May 19 06:16:00 2021
 By Aleksey,,,
Eightonesix
</metadata>
<defs>
<font id="GrodnaRegular" horiz-adv-x="557" >
  <font-face 
    font-family="Grodna"
    font-weight="500"
    font-stretch="normal"
    units-per-em="2048"
    panose-1="0 0 0 0 0 0 0 0 0 0"
    ascent="1638"
    descent="-410"
    x-height="1228"
    cap-height="1229"
    bbox="0 -127.222 1086.48 1445"
    underline-thickness="102"
    underline-position="-307"
    unicode-range="U+000D-0171"
  />
<missing-glyph horiz-adv-x="1331" 
 />
    <glyph glyph-name=".notdef" horiz-adv-x="1331" 
 />
    <glyph glyph-name=".notdef" horiz-adv-x="1331" 
 />
    <glyph glyph-name=".null" horiz-adv-x="0" 
 />
    <glyph glyph-name="nonmarkingreturn" horiz-adv-x="682" 
 />
    <glyph glyph-name="controlCR" unicode="&#xd;" horiz-adv-x="356" 
 />
    <glyph glyph-name="space" unicode=" " horiz-adv-x="356" 
 />
    <glyph glyph-name="exclam" unicode="!" horiz-adv-x="208" 
d="M126 0h-126v126h126v-126zM126 252h-126v920h126v-920z" />
    <glyph glyph-name="quotedbl" unicode="&#x22;" horiz-adv-x="321" 
d="M7 1171l4 47q1 12 12 17.5t21 -0.5l43 -25q16 -10 9 -27l-53 -126q-7 -15 -23 -13q-21 2 -19 23zM125 1171l4 47q1 12 12 17.5t21 -0.5l43 -25q16 -10 9 -27l-53 -126q-7 -15 -23 -13q-21 2 -19 23z" />
    <glyph glyph-name="numbersign" unicode="#" horiz-adv-x="878" 
d="M722 1230q11 0 14.5 -13t-5.5 -20q-23 -20 -33 -48.5t-27 -111.5l-40 -217h5q66 1 91.5 8t42.5 30q7 9 17 5t10 -15v-183q0 -11 -10 -15t-17 5q-16 22 -40 30t-84 9h-38l-30 -158h58q66 1 91.5 8t42.5 30q7 9 17 5.5t10 -14.5v-184q0 -11 -10 -14.5t-17 5.5
q-16 22 -39.5 29.5t-84.5 8.5h-91l-43 -232q-11 -56 -7 -94.5t35 -61.5q6 -4 4 -12.5t-9 -8.5h-56v-1l-7 1h-136q-11 0 -14.5 12.5t5.5 20.5q23 19 33 47.5t27 111.5l40 217h-133l-43 -232q-11 -56 -7 -94.5t35 -61.5q6 -4 4 -12.5t-9 -8.5h-55l-1 -1l-7 1h-135
q-11 0 -15 12.5t5 20.5q23 19 33 47.5t27 111.5l40 217h-5q-66 -1 -91.5 -8t-42.5 -30q-7 -9 -17 -5.5t-10 14.5v184q0 11 10 14.5t17 -5.5q16 -22 40 -29.5t85 -8.5h38l29 158h-58q-66 -1 -91.5 -8.5t-42.5 -30.5q-7 -9 -17 -5t-10 15v183q0 11 10 15t17 -5
q16 -22 40 -29.5t85 -8.5h90l43 234q11 56 7 94t-35 61q-6 5 -3.5 13t9.5 8h198q11 0 14.5 -13t-5.5 -20q-23 -20 -33 -48.5t-27 -111.5l-40 -217h133l43 234q11 56 7 94t-35 61q-6 5 -4 13t9 8h199zM318 536h132l29 158h-132z" />
    <glyph glyph-name="dollar" unicode="$" horiz-adv-x="610" 
d="M327 0h-126v105q-60 16 -101.5 69t-47.5 124h-1q0 46 -9 68t-30 38q-9 8 -5.5 19t14.5 11h184q11 0 15 -11t-5 -19q-5 -4 -13 -8.5t-10.5 -7.5t-6.5 -11.5t-5.5 -22.5t-1.5 -37q1 -37 20.5 -64t45.5 -27h58q27 0 46.5 28t19.5 66v228q0 38 -19.5 66t-46.5 28h-58
q-80 0 -136.5 64.5t-56.5 155.5v247q0 77 43 137t107 77v122h126v-118q71 -11 119 -73t48 -145v-39v-18v-49v-1q1 -13 3.5 -19.5t4 -8t13.5 -10.5q9 -8 5.5 -19t-14.5 -11h-168q-11 0 -14.5 11t5.5 19q20 15 29 35.5t10 62.5v47q0 38 -19.5 65.5t-46.5 27.5h-58
q-27 0 -47 -27.5t-20 -65.5v-247q0 -38 20 -66t47 -28h58q79 0 135.5 -64.5t56.5 -155.5v-228q0 -83 -48 -145t-119 -73v-102z" />
    <glyph glyph-name="percent" unicode="%" horiz-adv-x="509" 
d="M407 64v126h-126v-126h126zM132 1041v126h-126v-126h126zM407 1230q11 0 14.5 -13t-5.5 -20q-23 -20 -33 -48.5t-27 -111.5l-159 -859q-11 -56 -7 -94.5t35 -61.5q6 -4 4 -12.5t-9 -8.5h-56v-1l-7 1h-136q-11 0 -14.5 12.5t5.5 20.5q23 19 33 47.5t27 111.5l159 861
q11 56 7 94t-35 61q-6 5 -4 13t9 8h199z" />
    <glyph glyph-name="ampersand" unicode="&#x26;" horiz-adv-x="651" 
d="M353 213v375q0 36 -22.5 61.5t-54.5 25.5h-73q-32 0 -54.5 -25.5t-22.5 -61.5v-375q0 -36 22.5 -62t54.5 -26h73q32 0 54.5 26t22.5 62zM536 833q8 8 20 4.5t12 -13.5v-90v-15v-68q0 -10 -12 -13t-20 5q-22 25 -74 30q15 -35 17 -81v-379q0 -88 -59.5 -150.5
t-143.5 -62.5h-73q-84 0 -143.5 62.5t-59.5 150.5v387h1q5 81 58 138q-59 61 -59 150v151q0 77 51.5 132t124.5 55h74h37q73 0 124 -55t51 -132q1 -54 7.5 -78t25.5 -41q9 -8 5.5 -20t-14.5 -12h-90h-16h-68q-11 0 -14 12t6 20q19 16 25 40t7 79q0 26 -14.5 44t-34.5 18h-37
h-74q-20 0 -35 -18.5t-15 -43.5v-151q0 -36 22.5 -62t54.5 -26h213q55 1 79 7.5t41 25.5z" />
    <glyph glyph-name="quotesingle" unicode="'" horiz-adv-x="202" 
d="M7 1113l4 47q1 12 12 17.5t21 -0.5l43 -25q16 -10 9 -28l-53 -125q-7 -16 -23 -14q-9 1 -14.5 8t-4.5 16z" />
    <glyph glyph-name="parenleft" unicode="(" horiz-adv-x="327" 
d="M225 0q-93 0 -159 64.5t-66 155.5v789q0 91 66 155.5t159 64.5v-126q-41 0 -70 -27.5t-29 -66.5v-789q0 -39 29 -66.5t70 -27.5v-126z" />
    <glyph glyph-name="parenright" unicode=")" horiz-adv-x="327" 
d="M0 0v126q41 0 70 27.5t29 66.5v789q0 39 -29 66.5t-70 27.5v126q93 0 159 -64.5t66 -155.5v-789q0 -91 -66 -155.5t-159 -64.5z" />
    <glyph glyph-name="asterisk" unicode="*" horiz-adv-x="552" 
d="M471 1141l-147 -146l147 -147l-89 -89l-84 84v-118h-126v118l-83 -84l-89 89l146 147l-146 146l89 89l83 -83v118h126v-118l84 83z" />
    <glyph glyph-name="plus" unicode="+" horiz-adv-x="520" 
d="M418 707v-126h-146v-146h-126v146h-146v126h146v146h126v-146h146z" />
    <glyph glyph-name="comma" unicode="," horiz-adv-x="202" 
d="M7 1l4 47q1 12 12 17.5t21 -0.5l43 -25q16 -10 9 -28l-53 -125q-7 -16 -23 -14q-9 1 -14.5 8t-4.5 16z" />
    <glyph glyph-name="hyphen" unicode="-" horiz-adv-x="370" 
d="M268 639h-268v126h268v-126z" />
    <glyph glyph-name="period" unicode="." horiz-adv-x="208" 
d="M126 0h-126v126h126v-126z" />
    <glyph glyph-name="slash" unicode="/" horiz-adv-x="530" 
d="M407 1230q11 0 14.5 -13t-5.5 -20q-23 -20 -33 -48.5t-27 -111.5l-159 -859q-11 -56 -7 -94.5t35 -61.5q6 -4 4 -12.5t-9 -8.5h-56v-1l-7 1h-136q-11 0 -14.5 12.5t5.5 20.5q23 19 33 47.5t27 111.5l159 861q11 56 7 94t-35 61q-6 5 -4 13t9 8h199z" />
    <glyph glyph-name="zero" unicode="0" 
d="M330 220v789q0 39 -29 66.5t-70 27.5h-6q-41 0 -70 -27.5t-29 -66.5v-789q0 -39 29 -66.5t70 -27.5h6q41 0 70 27.5t29 66.5zM231 1229q93 0 159 -64.5t66 -155.5v-789q0 -91 -66 -155.5t-159 -64.5h-6q-93 0 -159 64.5t-66 155.5v789q0 91 66 155.5t159 64.5h6z" />
    <glyph glyph-name="one" unicode="1" horiz-adv-x="360" 
d="M207 171q1 -65 9 -92.5t30 -45.5q9 -7 5 -20t-15 -13h-95h-17h-72q-11 0 -14.5 13t5.5 20q24 21 30.5 54t7.5 131v766q-40 -21 -81 -21v127q31 0 56 39.5t25 99.5h126v-11v-1047z" />
    <glyph glyph-name="two" unicode="2" horiz-adv-x="512" 
d="M409 154v-28v-126h-330q-26 0 -44.5 18.5t-18.5 44.5v486q0 17 9 32l36 62q18 31 54 31h161l7 14v343q0 30 -22 51t-54 21h-5q-32 0 -54 -21t-22 -51v-19h-126v19q0 82 59.5 140t142.5 58h5q83 0 142.5 -58t59.5 -140v-358q0 -13 -7 -29l-31 -62q-18 -34 -56 -34h-164
l-9 -16v-406h112q57 2 81 9.5t41 27.5q8 9 20.5 5.5t12.5 -14.5z" />
    <glyph glyph-name="three" unicode="3" 
d="M231 1229q93 0 159 -65t66 -156v-162q0 -93 -68 -158q68 -65 68 -158v-309q0 -91 -66 -156t-159 -65h-6q-93 0 -159 65t-66 156h126q0 -39 29 -67t70 -28h6q41 0 70 28t29 67v309q0 39 -29 67t-70 28h-100v126h100q41 0 70 28t29 67v162q0 39 -29 66.5t-70 27.5h-6
q-41 0 -70 -27.5t-29 -66.5h-126q0 91 66 156t159 65h6z" />
    <glyph glyph-name="four" unicode="4" horiz-adv-x="659" 
d="M506 1011v-840q1 -65 9 -92.5t29 -45.5q9 -7 5.5 -20t-14.5 -13h-96h-16h-72q-11 0 -14.5 13t5.5 20q24 21 30.5 53.5t7.5 130.5v410h-201q-26 0 -45 19l-66 67q-18 20 -18 44v302q-1 65 -9 92t-29 45q-9 8 -5.5 20.5t14.5 12.5h96h16h72q11 0 15 -12.5t-5 -20.5
q-24 -21 -31 -55t-8 -131v-227l29 -30h175v305q-1 65 -9 92.5t-29 45.5q-9 8 -5.5 20.5t14.5 12.5h96h16h72q11 0 14.5 -12.5t-5.5 -20.5q-24 -21 -30.5 -54t-7.5 -131z" />
    <glyph glyph-name="five" unicode="5" horiz-adv-x="512" 
d="M409 1162v-16v-72q0 -11 -12.5 -14.5t-19.5 5.5q-18 21 -45.5 29t-94.5 9h-95v-406l9 -16h164q38 0 56 -34l31 -62q7 -16 7 -29v-358q0 -82 -59.5 -140t-142.5 -58h-5q-83 0 -142.5 58t-59.5 140v26h126v-26q0 -30 22 -51t54 -21h5q32 0 54 21t22 51v343l-7 14h-161
q-36 0 -54 31l-36 62q-9 15 -9 32v486q0 26 18.5 44.5t44.5 18.5h330v-67z" />
    <glyph glyph-name="six" unicode="6" 
d="M330 242v268q0 48 -29 82.5t-70 34.5h-6q-41 0 -70 -34.5t-29 -82.5v-144v-124q0 -48 29 -82t70 -34h6q41 0 70 34t29 82zM231 752q93 0 159 -71t66 -171v-268q0 -100 -66 -171t-159 -71h-6q-93 0 -159 71t-66 171v124v144v498q0 91 66 156t159 65h6q93 0 159 -65
t66 -156h-126q0 39 -29 67t-70 28h-6q-41 0 -70 -28t-29 -67v-280q45 24 99 24h6z" />
    <glyph glyph-name="seven" unicode="7" horiz-adv-x="589" 
d="M487 1229l-276 -1049q-17 -59 -14.5 -94t34.5 -59q7 -5 6 -16t-11 -11h-205q-11 0 -14.5 13t5.5 20q24 20 35 45.5t37 113.5l240 911h-155q-61 -1 -86.5 -8.5t-43.5 -28.5q-7 -9 -20 -5.5t-13 14.5v72v16v66h481z" />
    <glyph glyph-name="eight" unicode="8" 
d="M330 242v268q0 48 -29 82t-70 34h-6q-41 0 -70 -34t-29 -82v-268q0 -48 29 -82t70 -34h6q41 0 70 34t29 82zM149 1029v-203q0 -30 22.5 -52t53.5 -22h6q31 0 53.5 22t22.5 52v203q0 30 -22.5 52t-53.5 22h-6q-31 0 -53.5 -22t-22.5 -52zM379 692q77 -72 77 -182v-268
q0 -100 -66 -171t-159 -71h-6q-93 0 -159 71t-66 171v268q0 111 76 182q-53 56 -53 134v203q0 82 59.5 141t142.5 59h6q83 0 142 -58.5t59 -141.5v-203q0 -78 -53 -134z" />
    <glyph glyph-name="nine" unicode="9" 
d="M330 829v35v167q0 29 -29.5 50.5t-69.5 21.5h-6q-40 0 -69.5 -21.5t-29.5 -50.5v-202q0 -29 29.5 -50t69.5 -21h6q40 0 69.5 21t29.5 50zM231 1229q93 0 159 -58t66 -140v-167v-35v-608q0 -91 -66 -156t-159 -65h-6q-93 0 -159 65t-66 156h126q0 -39 29 -67t70 -28h6
q41 0 70 28t29 67v431q-48 -21 -99 -21h-6q-93 0 -159 58t-66 140v202q0 82 66 140t159 58h6z" />
    <glyph glyph-name="colon" unicode=":" horiz-adv-x="208" 
d="M126 676h-126v126h126v-126zM126 309h-126v126h126v-126z" />
    <glyph glyph-name="semicolon" unicode=";" horiz-adv-x="229" 
d="M126 706h-126v126h126v-126zM126 339h-126v126h126v-126z" />
    <glyph glyph-name="less" unicode="&#x3c;" horiz-adv-x="497" 
d="M299 212l-299 331l297 357l97 -81l-227 -273l226 -250z" />
    <glyph glyph-name="equal" unicode="=" horiz-adv-x="520" 
d="M418 615v-126h-418v126h418zM418 799v-126h-418v126h418z" />
    <glyph glyph-name="greater" unicode="&#x3e;" horiz-adv-x="497" 
d="M97 241l-97 81l227 273l-225 250l93 84l299 -331z" />
    <glyph glyph-name="question" unicode="?" horiz-adv-x="632" 
d="M326 1232q84 0 144 -63t60 -151v-359q0 -63 -17.5 -107t-46.5 -64t-55.5 -27.5t-55.5 -7.5q-31 0 -43 -4q-10 -18 -10 -181v-38h-126v37q0 133 7.5 186t39.5 85q41 41 132 41q12 0 18.5 1.5t15 8.5t12 24t3.5 46v359q0 37 -23 62.5t-55 25.5h-72q-32 0 -55 -25.5
t-23 -62.5v-48q1 -65 9 -92.5t30 -45.5q9 -8 5 -20.5t-15 -12.5h-95h-17h-72q-11 0 -14.5 12.5t5.5 20.5q21 18 29 43t9 82v61q0 88 60 151t144 63h72zM169 0v126h126v-126h-126z" />
    <glyph glyph-name="at" unicode="@" horiz-adv-x="782" 
d="M465 589q-26 0 -44.5 18.5t-18.5 44.5v99h-103v-268h166h109v530h-448v-797h511q26 0 44.5 -18.5t18.5 -44.5t-18.5 -44.5t-44.5 -18.5h-574q-26 0 -44.5 18.5t-18.5 44.5v923q0 26 18.5 44.5t44.5 18.5h574q26 0 44.5 -18.5t18.5 -44.5v-656q0 -27 -18 -45t-45 -18h-172
h-229q-26 0 -44.5 18.5t-18.5 44.5v394q0 26 18.5 44.5t44.5 18.5h229q26 0 44.5 -18.5t18.5 -44.5v-162q0 -26 -18.5 -44.5t-44.5 -18.5z" />
    <glyph glyph-name="A" unicode="A" horiz-adv-x="727" 
d="M231 502l158 72l-70 533h-3zM569 120q8 -37 17.5 -56t26.5 -33q9 -7 5.5 -19t-14.5 -12h-190q-7 0 -9 7t4 12q41 31 38 102l-42 328l-194 -89l-34 -241q-2 -69 39 -100q6 -5 4 -12t-9 -7h-190q-11 0 -14.5 12t5.5 19q28 24 44 93l118 842q8 69 18 128l2 15q5 33 2 51.5
t-19 32.5q-10 8 -6.5 21t15.5 13l25 1h183h58q12 0 16 -13.5t-6 -21.5q-7 -6 -11.5 -12t-7.5 -11.5t-3.5 -16t-0.5 -19.5t2.5 -27.5t4.5 -35t6.5 -47.5t7.5 -60z" />
    <glyph glyph-name="B" unicode="B" horiz-adv-x="573" 
d="M365 541v0q0 31 -22 54.5t-55 30.5l-117 -53v-447h95q41 0 70 28t29 67v320zM341 1008q0 39 -29 66.5t-70 27.5h-71v-391l102 47q1 0 2.5 1t2.5 2q63 27 63 88v159zM412 703q79 -64 79 -162v0v-320q0 -91 -66 -156t-159 -65h-45h-1h-199q-11 0 -14.5 13t5.5 20
q17 14 24 32t9 54v572v8v411q-2 36 -9 54t-24 32q-9 8 -5.5 20.5t14.5 12.5h199v-1h22q93 0 159 -64.5t66 -155.5v-159q0 -86 -55 -146z" />
    <glyph glyph-name="C" unicode="C" horiz-adv-x="559" 
d="M308 126q18 0 33.5 9.5t38.5 37.5l97 -80q-36 -44 -75 -68.5t-94 -24.5h-129q-75 0 -127 64t-52 156v789q0 92 52 155.5t127 63.5h129q55 0 94 -24.5t75 -67.5l-97 -81q-23 28 -38.5 37.5t-33.5 9.5h-129q-19 0 -36 -27.5t-17 -65.5v-789q0 -38 17 -66t36 -28h129z" />
    <glyph glyph-name="D" unicode="D" horiz-adv-x="577" 
d="M370 220v789q0 39 -22.5 66t-54.5 27h-123v-976h123q32 0 54.5 27.5t22.5 66.5zM293 1228q84 0 143.5 -64t59.5 -155v-789q0 -91 -59.5 -155.5t-143.5 -64.5h-186h-3h-83q-11 0 -14.5 13t5.5 20q28 25 32 78v1007q-4 53 -32 78q-9 8 -5.5 20.5t14.5 12.5h199v-1h73z" />
    <glyph glyph-name="E" unicode="E" 
d="M307 1102h-135v-573l178 81v-139l-178 -81v-264h269v-126h-395h-25q-11 0 -14.5 13t5.5 20q21 18 27 44.5t7 93.5v928q-1 41 -8 61.5t-25 35.5q-9 8 -5.5 20.5t14.5 12.5h199v-1h103q81 -7 152 -93l-97 -80q-23 28 -38.5 37.5t-33.5 9.5z" />
    <glyph glyph-name="F" unicode="F" horiz-adv-x="579" 
d="M328 1228q55 0 94 -24.5t75 -68.5l-97 -80q-23 28 -38.5 37.5t-33.5 9.5h-152v-573l178 81v-139l-178 -81v-197q1 -80 8.5 -110t30.5 -50q9 -7 5 -20t-15 -13h-95h-17h-72q-11 0 -14.5 13t5.5 20q23 19 30 49t8 111v898q-1 46 -8 67.5t-25 37.5q-9 8 -5.5 20.5t14.5 12.5
h198l1 -1h103z" />
    <glyph glyph-name="G" unicode="G" horiz-adv-x="561" 
d="M269 399l-59 111l269 142v-432q0 -91 -59.5 -155.5t-143.5 -64.5h-73q-84 0 -143.5 64.5t-59.5 155.5v787q0 91 60 156t145 65h2h44h61q87 0 155 -96l-102 -74q-32 44 -53 44h-61h-44h-2q-32 0 -55.5 -27.5t-23.5 -67.5v-787q0 -39 22.5 -66.5t54.5 -27.5h73
q32 0 54.5 27.5t22.5 66.5v223z" />
    <glyph glyph-name="H" unicode="H" horiz-adv-x="659" 
d="M564 1196q-22 -19 -29 -47.5t-9 -102.5v-797l1 -1q0 -125 4.5 -159.5t27.5 -55.5q9 -7 5.5 -20t-14.5 -13h-90h-15h-68q-11 0 -14.5 13t5.5 20q20 18 25.5 43.5t6.5 94.5v309l-223 -102h-1v-130q0 -123 4.5 -158.5t28.5 -56.5q5 -5 5.5 -13t-3.5 -14t-11 -6h-90h-15h-68
q-10 0 -13.5 13t4.5 20q19 18 25 43t7 87v872q-1 81 -8 111.5t-30 49.5q-9 8 -5.5 20.5t14.5 12.5h96h16h72q11 0 15 -12.5t-5 -20.5q-22 -19 -29.5 -47.5t-9.5 -102.5v-530l224 103v416q-1 81 -8 111.5t-30 49.5q-9 8 -5.5 20.5t14.5 12.5h96h16h72q11 0 14.5 -12.5
t-5.5 -20.5z" />
    <glyph glyph-name="I" unicode="I" horiz-adv-x="309" 
d="M176 193q1 -80 8.5 -110t30.5 -50q9 -7 5 -20t-15 -13h-95h-17h-72q-11 0 -14.5 13t5.5 20q22 19 29 47.5t9 102.5v882q-2 62 -9.5 87.5t-28.5 42.5q-9 7 -5.5 20t14.5 13l96 1h16h72q11 0 15 -12.5t-5 -20.5q-26 -22 -32.5 -60t-5.5 -155l-1 -1v-787z" />
    <glyph glyph-name="J" unicode="J" horiz-adv-x="657" 
d="M554 1229q11 0 14.5 -12.5t-5.5 -20.5q-26 -22 -32 -59t-5 -156v-761q0 -91 -60 -155.5t-144 -64.5h-72q-84 0 -144 64.5t-60 155.5v35q-1 1 -1 2q0 125 -4.5 159.5t-28.5 55.5q-9 8 -5.5 20.5t14.5 12.5h91h16h69q11 0 14.5 -12.5t-5.5 -20.5q-24 -21 -28.5 -55.5
t-4.5 -159.5l-1 -1v-36q0 -39 23 -66.5t55 -27.5h72q32 0 55 27.5t23 66.5v829q-1 70 -9 98.5t-30 47.5q-9 7 -5.5 20t14.5 13l96 1h16h72z" />
    <glyph glyph-name="K" unicode="K" horiz-adv-x="655" 
d="M490 157q34 -90 72 -124q9 -7 5.5 -20t-14.5 -13h-96h-16h-72q-11 0 -14.5 13t5.5 20t13.5 13t5.5 16t0 18.5t-6 27t-10.5 34.5t-16 48.5t-19.5 62.5l-87 270l-64 -152v-177q1 -80 8.5 -110.5t30.5 -50.5q9 -7 5 -20t-15 -13h-95h-17h-72q-11 0 -14.5 13t5.5 20
q22 19 29.5 48t8.5 102v882q-2 62 -9.5 87.5t-28.5 42.5q-9 7 -5.5 20t14.5 13l96 1h16h72q11 0 15 -12.5t-5 -20.5q-26 -22 -32.5 -60t-5.5 -155l-1 -1v-281l121 291l44 106l11 27q21 51 2 73q-9 9 -9 21t18 12h33h63h16h72q11 0 15 -13.5t-6 -19.5q-26 -16 -51.5 -59
t-75.5 -157l-115 -277l136 -423v0z" />
    <glyph glyph-name="L" unicode="L" horiz-adv-x="579" 
d="M342 126q22 0 54 44l102 -73q-69 -97 -156 -97h-47h-57h-188h-25q-11 0 -14.5 13t5.5 20q21 18 27 43.5t7 91.5v880q-1 72 -8.5 100.5t-29.5 47.5q-9 8 -5.5 20.5t14.5 12.5h96h16h72q11 0 15 -12.5t-5 -20.5q-22 -18 -30 -44t-9 -87v-939h62h57h47z" />
    <glyph glyph-name="M" unicode="M" horiz-adv-x="831" 
d="M738 1196q-23 -19 -30 -49t-8 -111v-843q1 -81 8 -111t30 -49q9 -7 5.5 -20t-14.5 -13h-96h-16h-72q-11 0 -14.5 13t5.5 20q23 19 30 49t8 111v613l-139 -445h-120l-139 439v-607q1 -80 8.5 -110t30.5 -50q9 -7 5 -20t-15 -13h-95h-17h-72q-11 0 -14.5 13t5.5 20
q23 19 30 49t8 111v842q-1 81 -8 111.5t-30 49.5q-9 8 -5.5 20.5t14.5 12.5h96h16h72q11 0 15 -12.5t-5 -20.5q-7 -6 -10 -9t-6 -7t-2.5 -9.5t0.5 -11t4 -16.5t7 -22t9.5 -31.5t12.5 -41.5l145 -458l165 530q8 31 8 48t-12 28q-9 8 -5.5 20.5t14.5 12.5h96h16h72
q11 0 14.5 -12.5t-5.5 -20.5z" />
    <glyph glyph-name="N" unicode="N" horiz-adv-x="722" 
d="M629 1196q-21 -18 -29 -44t-9 -87v-899q1 -62 9 -88.5t29 -44.5q9 -7 5.5 -20t-14.5 -13h-96h-16h-72q-11 0 -15.5 13t5.5 20q20 13 23.5 30.5t-6.5 49.5l-267 745v-665q1 -80 8.5 -110t30.5 -50q9 -7 5 -20t-15 -13h-29h-126h-29q-11 0 -14.5 13t5.5 20q23 19 30 49
t8 111v885q-2 54 -9.5 77.5t-27.5 40.5q-9 8 -5.5 20.5t14.5 12.5h96h16h72q11 0 15 -13t-6 -20q-13 -9 -14.5 -15.5t5.5 -32.5l259 -723v623q-1 72 -8.5 100.5t-29.5 47.5q-9 8 -5.5 20.5t14.5 12.5h96h16h72q11 0 14.5 -12.5t-5.5 -20.5z" />
    <glyph glyph-name="O" unicode="O" horiz-adv-x="616" 
d="M408 220v789q0 39 -28.5 66t-69.5 27h-85q-41 0 -70 -27t-29 -66v-789q0 -39 29 -66.5t70 -27.5h85q41 0 69.5 27.5t28.5 66.5zM310 1228q93 0 158.5 -64t65.5 -155v-789q0 -91 -65.5 -155.5t-158.5 -64.5h-85q-93 0 -159 64.5t-66 155.5v789q0 91 66 155t159 64h85z" />
    <glyph glyph-name="P" unicode="P" horiz-adv-x="591" 
d="M384 800v184q0 50 -35 84.5t-84 34.5h-89v-409v-67l131 62v-1l1 1q76 35 76 111zM265 1229q101 0 173 -72t72 -173v-184q0 -76 -39.5 -135t-111.5 -91l-183 -86v-313q2 -69 8.5 -96t28.5 -46q9 -7 5.5 -20t-14.5 -13h-95h-16h-72q-11 0 -14.5 13t5.5 20q21 18 29 45t9 93
v447v76v416q-2 36 -9 54t-24 32q-9 8 -5.5 20.5t14.5 12.5h24h175h40z" />
    <glyph glyph-name="Q" unicode="Q" horiz-adv-x="616" 
d="M408 220v789q0 39 -28.5 66t-69.5 27h-85q-41 0 -70 -27t-29 -66v-789q0 -34 22 -59.5t56 -32.5v10q0 14 9 23t23 9h62q14 0 23 -9t9 -23v-10q34 7 56 32.5t22 59.5zM310 1228q93 0 158.5 -64t65.5 -155v-789q0 -85 -59 -148t-145 -71v-30q0 -13 -9 -22.5t-23 -9.5h-62
q-14 0 -23 9.5t-9 22.5v30q-86 8 -145 71t-59 148v789q0 91 66 155t159 64h85z" />
    <glyph glyph-name="R" unicode="R" horiz-adv-x="634" 
d="M384 1006q0 40 -35 68t-84 28h-89v-402l134 55h1q73 28 73 89v162zM503 193q1 -81 8 -111t30 -49q9 -7 5.5 -20t-14.5 -13h-96h-16h-72q-11 0 -14.5 13t5.5 20q23 19 30 49t8 111v326q0 35 -27 61t-65 28l-109 -45v-370q1 -80 8.5 -110t30.5 -50q9 -7 5 -20t-15 -13h-95
h-17h-72q-11 0 -14.5 13t5.5 20q23 19 30 49t8 111v492v9v416q-2 36 -9 54t-23 32q-9 8 -5.5 20.5t14.5 12.5h198l1 -1h39q101 0 173 -65t72 -157v-162q0 -102 -81 -165q74 -64 74 -160v-326z" />
    <glyph glyph-name="S" unicode="S" horiz-adv-x="610" 
d="M494 902q1 -13 3.5 -19.5t4 -8t13.5 -10.5q9 -8 5.5 -19t-14.5 -11h-76h-92q-11 0 -14.5 11t5.5 19q20 15 29 35.5t10 62.5v47q0 38 -19.5 65.5t-46.5 27.5h-58q-27 0 -47 -27.5t-20 -65.5v-247q0 -38 20 -66t47 -28h58q79 0 135.5 -64.5t56.5 -155.5v-228
q0 -91 -56.5 -155.5t-135.5 -64.5h-58q-75 0 -130 57t-62 141h-1q0 46 -9 68t-30 38q-9 8 -5.5 19t14.5 11h92h92q11 0 15 -11t-5 -19q-5 -4 -13 -8.5t-10.5 -7.5t-6.5 -11.5t-5.5 -22.5t-1.5 -37q1 -37 20.5 -64t45.5 -27h58q27 0 46.5 28t19.5 66v228q0 38 -19.5 66
t-46.5 28h-58q-80 0 -136.5 64.5t-56.5 155.5v247q0 91 56.5 155t136.5 64h58q80 0 136 -64t56 -155v-39v-18v-49v-1z" />
    <glyph glyph-name="glyph56" unicode="T" horiz-adv-x="628" 
d="M0 1162v66h546v-66v-16v-44v-28q0 -11 -13 -14.5t-20 5.5q-18 22 -44.5 28.5t-94.5 8.5h-38v-909q1 -81 8 -111t30 -49q9 -7 5.5 -20t-14.5 -13h-96h-16h-72q-11 0 -14.5 13t5.5 20q23 19 30 49.5t8 111.5v908h-37q-68 -2 -95 -8.5t-45 -28.5q-7 -9 -20 -5.5t-13 14.5v28
v44v16z" />
    <glyph glyph-name="U" unicode="U" horiz-adv-x="716" 
d="M613 1228q11 0 14.5 -13t-5.5 -20q-21 -17 -28.5 -42.5t-9.5 -87.5v-839q0 -94 -65.5 -160t-158.5 -66h-85q-93 0 -159 66t-66 160v840q-2 62 -9.5 87t-28.5 42q-9 7 -5.5 20t14.5 13l96 1h16h72q11 0 15 -12.5t-5 -20.5q-26 -22 -32.5 -60t-5.5 -155l-1 -1v-754
q0 -41 29 -70.5t70 -29.5h85q40 0 69 29.5t29 70.5v754v1q1 117 -5.5 155t-32.5 60q-9 8 -5.5 20.5t14.5 12.5h72h17z" />
    <glyph glyph-name="V" unicode="V" horiz-adv-x="733" 
d="M630 1228q11 0 15 -12t-5 -20q-23 -20 -33 -49t-27 -113l-192 -1034h-124l-192 1034q-17 84 -27 113t-33 49q-9 8 -5.5 20t14.5 12h199q7 0 9 -8t-4 -12q-31 -23 -35 -61.5t7 -93.5l129 -697l129 696q11 56 7 94.5t-35 61.5q-6 4 -4 12t9 8h198z" />
    <glyph glyph-name="W" unicode="W" horiz-adv-x="1173" 
d="M1071 1229q11 0 14.5 -12.5t-5.5 -20.5q-23 -20 -33 -49t-27 -113l-192 -1034h-123l-159 747l-158 -747h-124l-192 1034q-17 84 -27 113t-33 49q-9 8 -5.5 20.5t14.5 12.5h199q7 0 9 -8.5t-4 -12.5q-31 -23 -35 -61t7 -94l133 -719l122 577q13 63 10.5 106t-35.5 68
q-6 5 -4 13t9 8h30h168h30q7 0 9.5 -8t-3.5 -13q-33 -25 -36 -68t10 -106l122 -577l133 718q11 56 7 94.5t-35 61.5q-6 4 -4 12.5t9 8.5h199z" />
    <glyph glyph-name="X" unicode="X" horiz-adv-x="741" 
d="M637 1229q11 0 15 -12.5t-5 -20.5q-46 -39 -84 -144l-167 -484l118 -342q1 0 1 -1q30 -89 51.5 -128.5t49.5 -63.5q9 -7 5.5 -20t-14.5 -13h-199q-7 0 -9 8t4 12q14 10 20.5 21.5t4.5 28t-5 28.5t-12 38t-14 42l-68 196l-62 -182q-6 -22 -18 -56.5t-15.5 -49.5t1 -33.5
t22.5 -32.5q6 -4 3.5 -12t-9.5 -8h-198q-11 0 -14.5 13t5.5 20q28 24 49 63t51 129h1l118 343l-167 484q-38 105 -84 144q-9 8 -5.5 20.5t14.5 12.5h199q7 0 9 -8.5t-4 -12.5q-18 -14 -22.5 -32.5t-1 -33t15.5 -49t18 -56.5v-1l94 -275l95 275v1q6 22 18 56.5t15 49t-1.5 33
t-22.5 32.5q-6 4 -3.5 12.5t9.5 8.5h198z" />
    <glyph glyph-name="Y" unicode="Y" horiz-adv-x="745" 
d="M642 1229q11 0 14.5 -12.5t-5.5 -20.5q-23 -20 -41 -49t-40 -89l-175 -500v-365q1 -81 8 -111t30 -49q9 -7 5.5 -20t-14.5 -13h-96h-16h-72q-11 0 -14.5 13t5.5 20q23 19 30 49t8 111v365l-175 500q-38 100 -82 138q-9 8 -5.5 20.5t14.5 12.5h199q7 0 9 -8.5t-4 -12.5
q-24 -18 -26 -43t10 -56l8 -22q3 -7 8 -23t8 -24l99 -281l98 282q0 1 16 45l9 24q12 31 9.5 55.5t-26.5 42.5q-6 4 -3.5 12.5t9.5 8.5h198z" />
    <glyph glyph-name="Z" unicode="Z" horiz-adv-x="622" 
d="M502 154v-28v-126h-502l365 1102h-101q-92 -1 -124.5 -7.5t-53.5 -30.5q-8 -9 -20.5 -5.5t-12.5 14.5v29v126h487l-366 -1102h159q65 1 92 9t45 29q8 9 20 5t12 -15z" />
    <glyph glyph-name="bracketleft" unicode="[" horiz-adv-x="327" 
d="M225 0q-93 0 -159 64.5t-66 155.5v789q0 91 66 155.5t159 64.5v-126q-41 0 -70 -27.5t-29 -66.5v-789q0 -39 29 -66.5t70 -27.5v-126z" />
    <glyph glyph-name="backslash" unicode="\" horiz-adv-x="530" 
d="M21 1230h199q7 0 9 -8t-4 -13q-31 -23 -35 -61t7 -94l159 -861q17 -83 27 -111.5t33 -47.5q9 -8 5.5 -20.5t-14.5 -12.5h-136l-7 -1v1h-56q-7 0 -9 8.5t4 12.5q31 23 35 61.5t-7 94.5l-159 859q-17 83 -27 111.5t-33 48.5q-9 7 -5.5 20t14.5 13z" />
    <glyph glyph-name="bracketright" unicode="]" horiz-adv-x="327" 
d="M0 0v126q41 0 70 27.5t29 66.5v789q0 39 -29 66.5t-70 27.5v126q93 0 159 -64.5t66 -155.5v-789q0 -91 -66 -155.5t-159 -64.5z" />
    <glyph glyph-name="asciicircum" unicode="^" horiz-adv-x="667" 
d="M473 824l-197 211l-181 -209l-95 82l272 316l293 -314z" />
    <glyph glyph-name="underscore" unicode="_" horiz-adv-x="370" 
d="M268 0h-268v126h268v-126z" />
    <glyph glyph-name="a" unicode="a" horiz-adv-x="727" 
d="M231 502l158 72l-70 533h-3zM569 120q8 -37 17.5 -56t26.5 -33q9 -7 5.5 -19t-14.5 -12h-190q-7 0 -9 7t4 12q41 31 38 102l-42 328l-194 -89l-34 -241q-2 -69 39 -100q6 -5 4 -12t-9 -7h-190q-11 0 -14.5 12t5.5 19q28 24 44 93l118 842q8 69 18 128l2 15q5 33 2 51.5
t-19 32.5q-10 8 -6.5 21t15.5 13l25 1h183h58q12 0 16 -13.5t-6 -21.5q-7 -6 -11.5 -12t-7.5 -11.5t-3.5 -16t-0.5 -19.5t2.5 -27.5t4.5 -35t6.5 -47.5t7.5 -60z" />
    <glyph glyph-name="b" unicode="b" horiz-adv-x="573" 
d="M365 541v0q0 31 -22 54.5t-55 30.5l-117 -53v-447h95q41 0 70 28t29 67v320zM341 1008q0 39 -29 66.5t-70 27.5h-71v-391l102 47q1 0 2.5 1t2.5 2q63 27 63 88v159zM412 703q79 -64 79 -162v0v-320q0 -91 -66 -156t-159 -65h-45h-1h-199q-11 0 -14.5 13t5.5 20
q17 14 24 32t9 54v572v8v411q-2 36 -9 54t-24 32q-9 8 -5.5 20.5t14.5 12.5h199v-1h22q93 0 159 -64.5t66 -155.5v-159q0 -86 -55 -146z" />
    <glyph glyph-name="c" unicode="c" horiz-adv-x="559" 
d="M308 126q18 0 33.5 9.5t38.5 37.5l97 -80q-36 -44 -75 -68.5t-94 -24.5h-129q-75 0 -127 64t-52 156v789q0 92 52 155.5t127 63.5h129q55 0 94 -24.5t75 -67.5l-97 -81q-23 28 -38.5 37.5t-33.5 9.5h-129q-19 0 -36 -27.5t-17 -65.5v-789q0 -38 17 -66t36 -28h129z" />
    <glyph glyph-name="d" unicode="d" horiz-adv-x="577" 
d="M370 220v789q0 39 -22.5 66t-54.5 27h-123v-976h123q32 0 54.5 27.5t22.5 66.5zM293 1228q84 0 143.5 -64t59.5 -155v-789q0 -91 -59.5 -155.5t-143.5 -64.5h-186h-3h-83q-11 0 -14.5 13t5.5 20q28 25 32 78v1007q-4 53 -32 78q-9 8 -5.5 20.5t14.5 12.5h199v-1h73z" />
    <glyph glyph-name="e" unicode="e" 
d="M307 1102h-135v-573l178 81v-139l-178 -81v-264h269v-126h-395h-25q-11 0 -14.5 13t5.5 20q21 18 27 44.5t7 93.5v928q-1 41 -8 61.5t-25 35.5q-9 8 -5.5 20.5t14.5 12.5h199v-1h103q81 -7 152 -93l-97 -80q-23 28 -38.5 37.5t-33.5 9.5z" />
    <glyph glyph-name="f" unicode="f" horiz-adv-x="579" 
d="M328 1228q55 0 94 -24.5t75 -68.5l-97 -80q-23 28 -38.5 37.5t-33.5 9.5h-152v-573l178 81v-139l-178 -81v-197q1 -80 8.5 -110t30.5 -50q9 -7 5 -20t-15 -13h-95h-17h-72q-11 0 -14.5 13t5.5 20q23 19 30 49t8 111v898q-1 46 -8 67.5t-25 37.5q-9 8 -5.5 20.5t14.5 12.5
h198l1 -1h103z" />
    <glyph glyph-name="g" unicode="g" horiz-adv-x="561" 
d="M269 399l-59 111l269 142v-432q0 -91 -59.5 -155.5t-143.5 -64.5h-73q-84 0 -143.5 64.5t-59.5 155.5v787q0 91 60 156t145 65h2h44h61q87 0 155 -96l-102 -74q-32 44 -53 44h-61h-44h-2q-32 0 -55.5 -27.5t-23.5 -67.5v-787q0 -39 22.5 -66.5t54.5 -27.5h73
q32 0 54.5 27.5t22.5 66.5v223z" />
    <glyph glyph-name="h" unicode="h" horiz-adv-x="659" 
d="M564 1196q-22 -19 -29 -47.5t-9 -102.5v-797l1 -1q0 -125 4.5 -159.5t27.5 -55.5q9 -7 5.5 -20t-14.5 -13h-90h-15h-68q-11 0 -14.5 13t5.5 20q20 18 25.5 43.5t6.5 94.5v309l-223 -102h-1v-130q0 -123 4.5 -158.5t28.5 -56.5q5 -5 5.5 -13t-3.5 -14t-11 -6h-90h-15h-68
q-10 0 -13.5 13t4.5 20q19 18 25 43t7 87v872q-1 81 -8 111.5t-30 49.5q-9 8 -5.5 20.5t14.5 12.5h96h16h72q11 0 15 -12.5t-5 -20.5q-22 -19 -29.5 -47.5t-9.5 -102.5v-530l224 103v416q-1 81 -8 111.5t-30 49.5q-9 8 -5.5 20.5t14.5 12.5h96h16h72q11 0 14.5 -12.5
t-5.5 -20.5z" />
    <glyph glyph-name="i" unicode="i" horiz-adv-x="309" 
d="M176 193q1 -80 8.5 -110t30.5 -50q9 -7 5 -20t-15 -13h-95h-17h-72q-11 0 -14.5 13t5.5 20q22 19 29 47.5t9 102.5v882q-2 62 -9.5 87.5t-28.5 42.5q-9 7 -5.5 20t14.5 13l96 1h16h72q11 0 15 -12.5t-5 -20.5q-26 -22 -32.5 -60t-5.5 -155l-1 -1v-787z" />
    <glyph glyph-name="j" unicode="j" horiz-adv-x="657" 
d="M554 1229q11 0 14.5 -12.5t-5.5 -20.5q-26 -22 -32 -59t-5 -156v-761q0 -91 -60 -155.5t-144 -64.5h-72q-84 0 -144 64.5t-60 155.5v35q-1 1 -1 2q0 125 -4.5 159.5t-28.5 55.5q-9 8 -5.5 20.5t14.5 12.5h91h16h69q11 0 14.5 -12.5t-5.5 -20.5q-24 -21 -28.5 -55.5
t-4.5 -159.5l-1 -1v-36q0 -39 23 -66.5t55 -27.5h72q32 0 55 27.5t23 66.5v829q-1 70 -9 98.5t-30 47.5q-9 7 -5.5 20t14.5 13l96 1h16h72z" />
    <glyph glyph-name="k" unicode="k" horiz-adv-x="655" 
d="M490 157q34 -90 72 -124q9 -7 5.5 -20t-14.5 -13h-96h-16h-72q-11 0 -14.5 13t5.5 20t13.5 13t5.5 16t0 18.5t-6 27t-10.5 34.5t-16 48.5t-19.5 62.5l-87 270l-64 -152v-177q1 -80 8.5 -110.5t30.5 -50.5q9 -7 5 -20t-15 -13h-95h-17h-72q-11 0 -14.5 13t5.5 20
q22 19 29.5 48t8.5 102v882q-2 62 -9.5 87.5t-28.5 42.5q-9 7 -5.5 20t14.5 13l96 1h16h72q11 0 15 -12.5t-5 -20.5q-26 -22 -32.5 -60t-5.5 -155l-1 -1v-281l121 291l44 106l11 27q21 51 2 73q-9 9 -9 21t18 12h33h63h16h72q11 0 15 -13.5t-6 -19.5q-26 -16 -51.5 -59
t-75.5 -157l-115 -277l136 -423v0z" />
    <glyph glyph-name="l" unicode="l" horiz-adv-x="579" 
d="M342 126q22 0 54 44l102 -73q-69 -97 -156 -97h-47h-57h-188h-25q-11 0 -14.5 13t5.5 20q21 18 27 43.5t7 91.5v880q-1 72 -8.5 100.5t-29.5 47.5q-9 8 -5.5 20.5t14.5 12.5h96h16h72q11 0 15 -12.5t-5 -20.5q-22 -18 -30 -44t-9 -87v-939h62h57h47z" />
    <glyph glyph-name="m" unicode="m" horiz-adv-x="831" 
d="M738 1196q-23 -19 -30 -49t-8 -111v-843q1 -81 8 -111t30 -49q9 -7 5.5 -20t-14.5 -13h-96h-16h-72q-11 0 -14.5 13t5.5 20q23 19 30 49t8 111v613l-139 -445h-120l-139 439v-607q1 -80 8.5 -110t30.5 -50q9 -7 5 -20t-15 -13h-95h-17h-72q-11 0 -14.5 13t5.5 20
q23 19 30 49t8 111v842q-1 81 -8 111.5t-30 49.5q-9 8 -5.5 20.5t14.5 12.5h96h16h72q11 0 15 -12.5t-5 -20.5q-7 -6 -10 -9t-6 -7t-2.5 -9.5t0.5 -11t4 -16.5t7 -22t9.5 -31.5t12.5 -41.5l145 -458l165 530q8 31 8 48t-12 28q-9 8 -5.5 20.5t14.5 12.5h96h16h72
q11 0 14.5 -12.5t-5.5 -20.5z" />
    <glyph glyph-name="n" unicode="n" horiz-adv-x="722" 
d="M629 1196q-21 -18 -29 -44t-9 -87v-899q1 -62 9 -88.5t29 -44.5q9 -7 5.5 -20t-14.5 -13h-96h-16h-72q-11 0 -15.5 13t5.5 20q20 13 23.5 30.5t-6.5 49.5l-267 745v-665q1 -80 8.5 -110t30.5 -50q9 -7 5 -20t-15 -13h-29h-126h-29q-11 0 -14.5 13t5.5 20q23 19 30 49
t8 111v885q-2 54 -9.5 77.5t-27.5 40.5q-9 8 -5.5 20.5t14.5 12.5h96h16h72q11 0 15 -13t-6 -20q-13 -9 -14.5 -15.5t5.5 -32.5l259 -723v623q-1 72 -8.5 100.5t-29.5 47.5q-9 8 -5.5 20.5t14.5 12.5h96h16h72q11 0 14.5 -12.5t-5.5 -20.5z" />
    <glyph glyph-name="o" unicode="o" horiz-adv-x="636" 
d="M502 213q8 9 20 5.5t12 -14.5v-29v-43v-16v-6v-17v-43v-29q0 -11 -12 -14.5t-20 5.5q-18 21 -44 29t-88 9h-203q-62 -1 -88 -9t-44 -29q-7 -9 -19.5 -5.5t-12.5 14.5v29v43v17v6v16v43v29q0 11 12.5 14.5t19.5 -5.5q22 -26 59.5 -32t156.5 -6h35q119 0 156.5 6t59.5 32z
M225 1106q-41 0 -70 -27t-29 -66v-553q0 -39 29 -66.5t70 -27.5h85q41 0 69.5 27.5t28.5 66.5v553q0 39 -28.5 66t-69.5 27h-85zM225 240q-93 0 -159 64.5t-66 155.5v553q0 91 66 155t159 64h85q93 0 158.5 -64t65.5 -155v-553q0 -91 -65.5 -155.5t-158.5 -64.5h-85z" />
    <glyph glyph-name="p" unicode="p" horiz-adv-x="591" 
d="M384 800v184q0 50 -35 84.5t-84 34.5h-89v-409v-67l131 62v-1l1 1q76 35 76 111zM265 1229q101 0 173 -72t72 -173v-184q0 -76 -39.5 -135t-111.5 -91l-183 -86v-313q2 -69 8.5 -96t28.5 -46q9 -7 5.5 -20t-14.5 -13h-95h-16h-72q-11 0 -14.5 13t5.5 20q21 18 29 45t9 93
v447v76v416q-2 36 -9 54t-24 32q-9 8 -5.5 20.5t14.5 12.5h24h175h40z" />
    <glyph glyph-name="q" unicode="q" horiz-adv-x="616" 
d="M408 220v789q0 39 -28.5 66t-69.5 27h-85q-41 0 -70 -27t-29 -66v-789q0 -34 22 -59.5t56 -32.5v10q0 14 9 23t23 9h62q14 0 23 -9t9 -23v-10q34 7 56 32.5t22 59.5zM310 1228q93 0 158.5 -64t65.5 -155v-789q0 -85 -59 -148t-145 -71v-30q0 -13 -9 -22.5t-23 -9.5h-62
q-14 0 -23 9.5t-9 22.5v30q-86 8 -145 71t-59 148v789q0 91 66 155t159 64h85z" />
    <glyph glyph-name="r" unicode="r" horiz-adv-x="634" 
d="M384 1006q0 40 -35 68t-84 28h-89v-402l134 55h1q73 28 73 89v162zM503 193q1 -81 8 -111t30 -49q9 -7 5.5 -20t-14.5 -13h-96h-16h-72q-11 0 -14.5 13t5.5 20q23 19 30 49t8 111v326q0 35 -27 61t-65 28l-109 -45v-370q1 -80 8.5 -110t30.5 -50q9 -7 5 -20t-15 -13h-95
h-17h-72q-11 0 -14.5 13t5.5 20q23 19 30 49t8 111v492v9v416q-2 36 -9 54t-23 32q-9 8 -5.5 20.5t14.5 12.5h198l1 -1h39q101 0 173 -65t72 -157v-162q0 -102 -81 -165q74 -64 74 -160v-326z" />
    <glyph glyph-name="s" unicode="s" horiz-adv-x="610" 
d="M494 902q1 -13 3.5 -19.5t4 -8t13.5 -10.5q9 -8 5.5 -19t-14.5 -11h-76h-92q-11 0 -14.5 11t5.5 19q20 15 29 35.5t10 62.5v47q0 38 -19.5 65.5t-46.5 27.5h-58q-27 0 -47 -27.5t-20 -65.5v-247q0 -38 20 -66t47 -28h58q79 0 135.5 -64.5t56.5 -155.5v-228
q0 -91 -56.5 -155.5t-135.5 -64.5h-58q-75 0 -130 57t-62 141h-1q0 46 -9 68t-30 38q-9 8 -5.5 19t14.5 11h92h92q11 0 15 -11t-5 -19q-5 -4 -13 -8.5t-10.5 -7.5t-6.5 -11.5t-5.5 -22.5t-1.5 -37q1 -37 20.5 -64t45.5 -27h58q27 0 46.5 28t19.5 66v228q0 38 -19.5 66
t-46.5 28h-58q-80 0 -136.5 64.5t-56.5 155.5v247q0 91 56.5 155t136.5 64h58q80 0 136 -64t56 -155v-39v-18v-49v-1z" />
    <glyph glyph-name="t" unicode="t" horiz-adv-x="628" 
d="M0 1162v66h546v-66v-16v-44v-28q0 -11 -13 -14.5t-20 5.5q-18 22 -44.5 28.5t-94.5 8.5h-38v-909q1 -81 8 -111t30 -49q9 -7 5.5 -20t-14.5 -13h-96h-16h-72q-11 0 -14.5 13t5.5 20q23 19 30 49.5t8 111.5v908h-37q-68 -2 -95 -8.5t-45 -28.5q-7 -9 -20 -5.5t-13 14.5v28
v44v16z" />
    <glyph glyph-name="u" unicode="u" horiz-adv-x="716" 
d="M613 1228q11 0 14.5 -13t-5.5 -20q-21 -17 -28.5 -42.5t-9.5 -87.5v-839q0 -94 -65.5 -160t-158.5 -66h-85q-93 0 -159 66t-66 160v840q-2 62 -9.5 87t-28.5 42q-9 7 -5.5 20t14.5 13l96 1h16h72q11 0 15 -12.5t-5 -20.5q-26 -22 -32.5 -60t-5.5 -155l-1 -1v-754
q0 -41 29 -70.5t70 -29.5h85q40 0 69 29.5t29 70.5v754v1q1 117 -5.5 155t-32.5 60q-9 8 -5.5 20.5t14.5 12.5h72h17z" />
    <glyph glyph-name="v" unicode="v" horiz-adv-x="733" 
d="M630 1228q11 0 15 -12t-5 -20q-23 -20 -33 -49t-27 -113l-192 -1034h-124l-192 1034q-17 84 -27 113t-33 49q-9 8 -5.5 20t14.5 12h199q7 0 9 -8t-4 -12q-31 -23 -35 -61.5t7 -93.5l129 -697l129 696q11 56 7 94.5t-35 61.5q-6 4 -4 12t9 8h198z" />
    <glyph glyph-name="w" unicode="w" horiz-adv-x="1173" 
d="M1071 1229q11 0 14.5 -12.5t-5.5 -20.5q-23 -20 -33 -49t-27 -113l-192 -1034h-123l-159 747l-158 -747h-124l-192 1034q-17 84 -27 113t-33 49q-9 8 -5.5 20.5t14.5 12.5h199q7 0 9 -8.5t-4 -12.5q-31 -23 -35 -61t7 -94l133 -719l122 577q13 63 10.5 106t-35.5 68
q-6 5 -4 13t9 8h30h168h30q7 0 9.5 -8t-3.5 -13q-33 -25 -36 -68t10 -106l122 -577l133 718q11 56 7 94.5t-35 61.5q-6 4 -4 12.5t9 8.5h199z" />
    <glyph glyph-name="x" unicode="x" horiz-adv-x="741" 
d="M637 1229q11 0 15 -12.5t-5 -20.5q-46 -39 -84 -144l-167 -484l118 -342q1 0 1 -1q30 -89 51.5 -128.5t49.5 -63.5q9 -7 5.5 -20t-14.5 -13h-199q-7 0 -9 8t4 12q14 10 20.5 21.5t4.5 28t-5 28.5t-12 38t-14 42l-68 196l-62 -182q-6 -22 -18 -56.5t-15.5 -49.5t1 -33.5
t22.5 -32.5q6 -4 3.5 -12t-9.5 -8h-198q-11 0 -14.5 13t5.5 20q28 24 49 63t51 129h1l118 343l-167 484q-38 105 -84 144q-9 8 -5.5 20.5t14.5 12.5h199q7 0 9 -8.5t-4 -12.5q-18 -14 -22.5 -32.5t-1 -33t15.5 -49t18 -56.5v-1l94 -275l95 275v1q6 22 18 56.5t15 49t-1.5 33
t-22.5 32.5q-6 4 -3.5 12.5t9.5 8.5h198z" />
    <glyph glyph-name="y" unicode="y" horiz-adv-x="745" 
d="M642 1229q11 0 14.5 -12.5t-5.5 -20.5q-23 -20 -41 -49t-40 -89l-175 -500v-365q1 -81 8 -111t30 -49q9 -7 5.5 -20t-14.5 -13h-96h-16h-72q-11 0 -14.5 13t5.5 20q23 19 30 49t8 111v365l-175 500q-38 100 -82 138q-9 8 -5.5 20.5t14.5 12.5h199q7 0 9 -8.5t-4 -12.5
q-24 -18 -26 -43t10 -56l8 -22q3 -7 8 -23t8 -24l99 -281l98 282q0 1 16 45l9 24q12 31 9.5 55.5t-26.5 42.5q-6 4 -3.5 12.5t9.5 8.5h198z" />
    <glyph glyph-name="z" unicode="z" horiz-adv-x="622" 
d="M502 154v-28v-126h-502l365 1102h-101q-92 -1 -124.5 -7.5t-53.5 -30.5q-8 -9 -20.5 -5.5t-12.5 14.5v29v126h487l-366 -1102h159q65 1 92 9t45 29q8 9 20 5t12 -15z" />
    <glyph glyph-name="braceleft" unicode="{" horiz-adv-x="430" 
d="M102 1009q0 91 66 155.5t159 64.5v-126q-41 0 -70 -27.5t-29 -66.5v-789q0 -39 29 -66.5t70 -27.5v-126q-93 0 -159 64.5t-66 155.5v268q-3 43 -25.5 66.5t-62.5 40.5q-14 7 -14 20q0 14 14 21q40 17 62.5 40.5t25.5 66.5v266z" />
    <glyph glyph-name="bar" unicode="|" horiz-adv-x="329" 
d="M176 193q1 -80 8.5 -110t30.5 -50q9 -7 5 -20t-15 -13h-29h-66h-17h-43h-29q-11 0 -14.5 13t5.5 20q22 19 29 47.5t9 102.5v69v783q-1 81 -8 111.5t-30 49.5q-9 8 -5.5 20t14.5 12h29h67h16h43h29q11 0 15 -12t-5 -20q-22 -19 -29.5 -47.5t-9.5 -102.5v-70v-783z" />
    <glyph glyph-name="braceright" unicode="}" horiz-adv-x="430" 
d="M314 636q14 -7 14 -21q0 -13 -14 -20q-44 -18 -66.5 -44.5t-22.5 -77.5v-2v-251q0 -91 -66 -155.5t-159 -64.5v126q41 0 70 27.5t29 66.5v789q0 39 -29 66.5t-70 27.5v126q93 0 159 -64.5t66 -155.5v-249v-2q0 -51 22.5 -77.5t66.5 -44.5z" />
    <glyph glyph-name="nonbreakingspace" unicode="&#xa0;" horiz-adv-x="356" 
 />
    <glyph glyph-name="Aacute" unicode="&#xc1;" horiz-adv-x="727" 
d="M344 1407l-78 -69q-16 -14 -3 -30q10 -14 26 -7l126 51q18 7 13 26l-12 48q-3 12 -15 16t-21 -4zM231 502l158 72l-70 533h-3zM569 120q8 -37 17.5 -56t26.5 -33q9 -7 5.5 -19t-14.5 -12h-190q-7 0 -9 7t4 12q41 31 38 102l-42 328l-194 -89l-34 -241q-2 -69 39 -100
q6 -5 4 -12t-9 -7h-190q-11 0 -14.5 12t5.5 19q28 24 44 93l118 842q8 69 18 128l2 15q5 33 2 51.5t-19 32.5q-10 8 -6.5 21t15.5 13l266 1q12 0 16 -13.5t-6 -21.5q-7 -6 -11.5 -12t-7.5 -11.5t-3.5 -16t-0.5 -19.5t2.5 -27.5t4.5 -35t6.5 -47.5t7.5 -60z" />
    <glyph glyph-name="Eacute" unicode="&#xc9;" 
d="M307 1103h-135v-574l178 81v-138l-178 -82v-264h269v-126h-395h-25q-11 0 -14.5 13t5.5 20q21 18 27 44.5t7 93.5v928q-1 41 -8 61.5t-25 35.5q-9 8 -5.5 20.5t14.5 12.5h199h103v-1q81 -7 152 -93l-97 -80q-24 29 -39 38.5t-33 9.5zM266 1408l-78 -70q-16 -14 -3 -30
q10 -14 26 -7l126 52q18 7 13 26l-12 48q-3 12 -15 15.5t-21 -4.5z" />
    <glyph glyph-name="Iacute" unicode="&#xcd;" horiz-adv-x="313" 
d="M176 193q1 -80 8.5 -110t30.5 -50q9 -7 5 -20t-15 -13h-95h-17h-72q-11 0 -14.5 13t5.5 20q22 19 29 47t9 102v883q-2 62 -9.5 87.5t-28.5 42.5q-9 7 -5.5 20t14.5 13h96h16l72 1q11 0 15 -12.5t-5 -20.5q-26 -22 -32.5 -60t-5.5 -155l-1 -1v-787zM144 1408l-78 -70
q-16 -14 -3 -30q10 -14 26 -7l126 52q18 7 13 26l-12 48q-3 12 -15 15.5t-21 -4.5z" />
    <glyph glyph-name="Oacute" unicode="&#xd3;" horiz-adv-x="616" 
d="M322 1408l-78 -70q-16 -14 -3 -30q10 -14 26 -7l126 51q18 7 13 27l-12 47q-3 12 -15 16t-21 -4zM408 220v789q0 39 -28.5 66t-69.5 27h-85q-41 0 -70 -27t-29 -66v-789q0 -39 29 -66.5t70 -27.5h85q41 0 69.5 27.5t28.5 66.5zM310 1228q93 0 158.5 -64t65.5 -155v-789
q0 -91 -65.5 -155.5t-158.5 -64.5h-85q-93 0 -159 64.5t-66 155.5v789q0 91 66 155t159 64h85z" />
    <glyph glyph-name="Odieresis" unicode="&#xd6;" horiz-adv-x="616" 
d="M333 1294q8 -8 19.5 -8t19.5 8l31 31q19 19 0 39l-31 31q-20 19 -39 0l-31 -31q-8 -8 -8 -19.5t8 -19.5zM163 1294q8 -8 19.5 -8t19.5 8l31 31q19 19 0 39l-31 31q-20 19 -39 0l-31 -31q-8 -8 -8 -19.5t8 -19.5zM408 220v789q0 39 -28.5 66t-69.5 27h-85q-41 0 -70 -27
t-29 -66v-789q0 -39 29 -66.5t70 -27.5h85q41 0 69.5 27.5t28.5 66.5zM310 1228q93 0 158.5 -64t65.5 -155v-789q0 -91 -65.5 -155.5t-158.5 -64.5h-85q-93 0 -159 64.5t-66 155.5v789q0 91 66 155t159 64h85z" />
    <glyph glyph-name="Uacute" unicode="&#xda;" horiz-adv-x="716" 
d="M613 1228q11 0 14.5 -12t-5.5 -20q-21 -17 -28.5 -42.5t-9.5 -87.5v-839q0 -94 -65.5 -160.5t-158.5 -66.5h-85q-93 0 -159 66.5t-66 160.5v839q-2 62 -9.5 87.5t-28.5 42.5q-9 8 -5.5 20t14.5 12l96 1h16h72q11 0 15 -12.5t-5 -20.5q-26 -22 -32.5 -60t-5.5 -155l-1 -1
v-753q0 -41 29.5 -71t69.5 -30h85q40 0 69 30t29 71v753v1q1 117 -5.5 155t-32.5 60q-9 8 -5.5 20.5t14.5 12.5h72h17zM388 1408l-78 -70q-16 -14 -3 -30q10 -14 26 -7l126 52q18 7 13 26l-12 48q-3 12 -15 15.5t-21 -4.5z" />
    <glyph glyph-name="Udieresis" unicode="&#xdc;" horiz-adv-x="716" 
d="M383 1294q8 -8 19.5 -8t19.5 8l31 31q19 19 0 39l-31 31q-20 19 -39 0l-31 -31q-8 -8 -8 -19.5t8 -19.5zM213 1294q8 -8 19.5 -8t19.5 8l31 31q19 19 0 39l-31 31q-20 19 -39 0l-31 -31q-8 -8 -8 -19.5t8 -19.5zM613 1228q11 0 14.5 -12t-5.5 -20q-21 -17 -28.5 -42.5
t-9.5 -87.5v-839q0 -94 -65.5 -160.5t-158.5 -66.5h-85q-93 0 -159 66.5t-66 160.5v839q-2 62 -9.5 87.5t-28.5 42.5q-9 8 -5.5 20t14.5 12l96 1h16h72q11 0 15 -12.5t-5 -20.5q-26 -22 -32.5 -60t-5.5 -155l-1 -1v-753q0 -41 29.5 -71t69.5 -30h85q40 0 69 30t29 71v753v1
q1 117 -5.5 155t-32.5 60q-9 8 -5.5 20.5t14.5 12.5h72h17z" />
    <glyph glyph-name="aacute" unicode="&#xe1;" horiz-adv-x="727" 
d="M344 1407l-78 -69q-16 -14 -3 -30q10 -14 26 -7l126 51q18 7 13 26l-12 48q-3 12 -15 16t-21 -4zM231 502l158 72l-70 533h-3zM569 120q8 -37 17.5 -56t26.5 -33q9 -7 5.5 -19t-14.5 -12h-190q-7 0 -9 7t4 12q41 31 38 102l-42 328l-194 -89l-34 -241q-2 -69 39 -100
q6 -5 4 -12t-9 -7h-190q-11 0 -14.5 12t5.5 19q28 24 44 93l118 842q8 69 18 128l2 15q5 33 2 51.5t-19 32.5q-10 8 -6.5 21t15.5 13l266 1q12 0 16 -13.5t-6 -21.5q-7 -6 -11.5 -12t-7.5 -11.5t-3.5 -16t-0.5 -19.5t2.5 -27.5t4.5 -35t6.5 -47.5t7.5 -60z" />
    <glyph glyph-name="eacute" unicode="&#xe9;" 
d="M307 1103h-135v-574l178 81v-138l-178 -82v-264h269v-126h-395h-25q-11 0 -14.5 13t5.5 20q21 18 27 44.5t7 93.5v928q-1 41 -8 61.5t-25 35.5q-9 8 -5.5 20.5t14.5 12.5h199h103v-1q81 -7 152 -93l-97 -80q-24 29 -39 38.5t-33 9.5zM266 1408l-78 -70q-16 -14 -3 -30
q10 -14 26 -7l126 52q18 7 13 26l-12 48q-3 12 -15 15.5t-21 -4.5z" />
    <glyph glyph-name="iacute" unicode="&#xed;" horiz-adv-x="313" 
d="M176 193q1 -80 8.5 -110t30.5 -50q9 -7 5 -20t-15 -13h-95h-17h-72q-11 0 -14.5 13t5.5 20q22 19 29 47t9 102v883q-2 62 -9.5 87.5t-28.5 42.5q-9 7 -5.5 20t14.5 13h96h16l72 1q11 0 15 -12.5t-5 -20.5q-26 -22 -32.5 -60t-5.5 -155l-1 -1v-787zM144 1408l-78 -70
q-16 -14 -3 -30q10 -14 26 -7l126 52q18 7 13 26l-12 48q-3 12 -15 15.5t-21 -4.5z" />
    <glyph glyph-name="oacute" unicode="&#xf3;" horiz-adv-x="616" 
d="M322 1408l-78 -70q-16 -14 -3 -30q10 -14 26 -7l126 51q18 7 13 27l-12 47q-3 12 -15 16t-21 -4zM408 220v789q0 39 -28.5 66t-69.5 27h-85q-41 0 -70 -27t-29 -66v-789q0 -39 29 -66.5t70 -27.5h85q41 0 69.5 27.5t28.5 66.5zM310 1228q93 0 158.5 -64t65.5 -155v-789
q0 -91 -65.5 -155.5t-158.5 -64.5h-85q-93 0 -159 64.5t-66 155.5v789q0 91 66 155t159 64h85z" />
    <glyph glyph-name="odieresis" unicode="&#xf6;" horiz-adv-x="616" 
d="M333 1294q8 -8 19.5 -8t19.5 8l31 31q19 19 0 39l-31 31q-20 19 -39 0l-31 -31q-8 -8 -8 -19.5t8 -19.5zM163 1294q8 -8 19.5 -8t19.5 8l31 31q19 19 0 39l-31 31q-20 19 -39 0l-31 -31q-8 -8 -8 -19.5t8 -19.5zM408 220v789q0 39 -28.5 66t-69.5 27h-85q-41 0 -70 -27
t-29 -66v-789q0 -39 29 -66.5t70 -27.5h85q41 0 69.5 27.5t28.5 66.5zM310 1228q93 0 158.5 -64t65.5 -155v-789q0 -91 -65.5 -155.5t-158.5 -64.5h-85q-93 0 -159 64.5t-66 155.5v789q0 91 66 155t159 64h85z" />
    <glyph glyph-name="uacute" unicode="&#xfa;" horiz-adv-x="716" 
d="M613 1228q11 0 14.5 -12t-5.5 -20q-21 -17 -28.5 -42.5t-9.5 -87.5v-839q0 -94 -65.5 -160.5t-158.5 -66.5h-85q-93 0 -159 66.5t-66 160.5v839q-2 62 -9.5 87.5t-28.5 42.5q-9 8 -5.5 20t14.5 12l96 1h16h72q11 0 15 -12.5t-5 -20.5q-26 -22 -32.5 -60t-5.5 -155l-1 -1
v-753q0 -41 29.5 -71t69.5 -30h85q40 0 69 30t29 71v753v1q1 117 -5.5 155t-32.5 60q-9 8 -5.5 20.5t14.5 12.5h72h17zM388 1408l-78 -70q-16 -14 -3 -30q10 -14 26 -7l126 52q18 7 13 26l-12 48q-3 12 -15 15.5t-21 -4.5z" />
    <glyph glyph-name="udieresis" unicode="&#xfc;" horiz-adv-x="716" 
d="M383 1294q8 -8 19.5 -8t19.5 8l31 31q19 19 0 39l-31 31q-20 19 -39 0l-31 -31q-8 -8 -8 -19.5t8 -19.5zM213 1294q8 -8 19.5 -8t19.5 8l31 31q19 19 0 39l-31 31q-20 19 -39 0l-31 -31q-8 -8 -8 -19.5t8 -19.5zM613 1228q11 0 14.5 -12t-5.5 -20q-21 -17 -28.5 -42.5
t-9.5 -87.5v-839q0 -94 -65.5 -160.5t-158.5 -66.5h-85q-93 0 -159 66.5t-66 160.5v839q-2 62 -9.5 87.5t-28.5 42.5q-9 8 -5.5 20t14.5 12l96 1h16h72q11 0 15 -12.5t-5 -20.5q-26 -22 -32.5 -60t-5.5 -155l-1 -1v-753q0 -41 29.5 -71t69.5 -30h85q40 0 69 30t29 71v753v1
q1 117 -5.5 155t-32.5 60q-9 8 -5.5 20.5t14.5 12.5h72h17z" />
    <glyph glyph-name="Ohungarumlaut" unicode="&#x150;" horiz-adv-x="616" 
d="M361 1408l-78 -70q-16 -14 -3 -30q10 -14 26 -7l126 51q18 7 13 27l-13 47q-3 12 -14.5 16t-20.5 -4zM178 1408l-78 -70q-16 -14 -3 -30q10 -14 26 -7l126 51q18 7 13 27l-12 47q-3 12 -15 16t-21 -4zM408 220v789q0 39 -28.5 66t-69.5 27h-85q-41 0 -70 -27t-29 -66
v-789q0 -39 29 -66.5t70 -27.5h85q41 0 69.5 27.5t28.5 66.5zM310 1228q93 0 158.5 -64t65.5 -155v-789q0 -91 -65.5 -155.5t-158.5 -64.5h-85q-93 0 -159 64.5t-66 155.5v789q0 91 66 155t159 64h85z" />
    <glyph glyph-name="ohungarumlaut" unicode="&#x151;" horiz-adv-x="616" 
d="M361 1408l-78 -70q-16 -14 -3 -30q10 -14 26 -7l126 51q18 7 13 27l-13 47q-3 12 -14.5 16t-20.5 -4zM178 1408l-78 -70q-16 -14 -3 -30q10 -14 26 -7l126 51q18 7 13 27l-12 47q-3 12 -15 16t-21 -4zM408 220v789q0 39 -28.5 66t-69.5 27h-85q-41 0 -70 -27t-29 -66
v-789q0 -39 29 -66.5t70 -27.5h85q41 0 69.5 27.5t28.5 66.5zM310 1228q93 0 158.5 -64t65.5 -155v-789q0 -91 -65.5 -155.5t-158.5 -64.5h-85q-93 0 -159 64.5t-66 155.5v789q0 91 66 155t159 64h85z" />
    <glyph glyph-name="Uhungarumlaut" unicode="&#x170;" horiz-adv-x="716" 
d="M613 1228q11 0 14.5 -12t-5.5 -20q-21 -17 -28.5 -42.5t-9.5 -87.5v-839q0 -94 -65.5 -160.5t-158.5 -66.5h-85q-93 0 -159 66.5t-66 160.5v839q-2 62 -9.5 87.5t-28.5 42.5q-9 8 -5.5 20t14.5 12l96 1h16h72q11 0 15 -12.5t-5 -20.5q-26 -22 -32.5 -60t-5.5 -155l-1 -1
v-753q0 -41 29.5 -71t69.5 -30h85q40 0 69 30t29 71v753v1q1 117 -5.5 155t-32.5 60q-9 8 -5.5 20.5t14.5 12.5h72h17zM411 1408l-78 -70q-16 -14 -3 -30q10 -14 26 -7l126 52q18 7 13 26l-12 48q-3 12 -15 15.5t-21 -4.5zM228 1408l-78 -70q-16 -14 -3 -30q10 -14 26 -7
l126 52q18 7 13 26l-12 48q-3 12 -15 15.5t-21 -4.5z" />
    <glyph glyph-name="uhungarumlaut" unicode="&#x171;" horiz-adv-x="716" 
d="M613 1228q11 0 14.5 -12t-5.5 -20q-21 -17 -28.5 -42.5t-9.5 -87.5v-839q0 -94 -65.5 -160.5t-158.5 -66.5h-85q-93 0 -159 66.5t-66 160.5v839q-2 62 -9.5 87.5t-28.5 42.5q-9 8 -5.5 20t14.5 12l96 1h16h72q11 0 15 -12.5t-5 -20.5q-26 -22 -32.5 -60t-5.5 -155l-1 -1
v-753q0 -41 29.5 -71t69.5 -30h85q40 0 69 30t29 71v753v1q1 117 -5.5 155t-32.5 60q-9 8 -5.5 20.5t14.5 12.5h72h17zM411 1408l-78 -70q-16 -14 -3 -30q10 -14 26 -7l126 52q18 7 13 26l-12 48q-3 12 -15 15.5t-21 -4.5zM228 1408l-78 -70q-16 -14 -3 -30q10 -14 26 -7
l126 52q18 7 13 26l-12 48q-3 12 -15 15.5t-21 -4.5z" />
    <glyph glyph-name="T" horiz-adv-x="628" 
d="M0 1162v66h546v-66v-16v-44v-28q0 -11 -13 -15t-20 5q-18 22 -45 29.5t-94 8.5h-38v-909q1 -81 8 -111t30 -49q9 -7 5.5 -20t-14.5 -13h-96h-16h-72q-11 0 -14.5 13t5.5 20q23 19 30 49t8 111v909h-37q-68 -2 -95 -9t-45 -29q-7 -9 -20 -5t-13 15v28v44v16z" />
  </font>
</defs>
</svg>
